<svg id="surface1" xmlns="http://www.w3.org/2000/svg" width="31.138" height="31.138" viewBox="0 0 31.138 31.138">
  <path id="Path_689" data-name="Path 689" d="M12.348,3.221v9.127H3.221a3.221,3.221,0,0,0,0,6.442h9.127v9.127a3.231,3.231,0,0,0,3.221,3.221V0A3.231,3.231,0,0,0,12.348,3.221Zm0,0" fill="#7c84e8"/>
  <path id="Path_690" data-name="Path 690" d="M268.348,12.348h-9.127V3.221A3.231,3.231,0,0,0,256,0V31.138a3.231,3.231,0,0,0,3.221-3.221V18.79h9.127a3.221,3.221,0,1,0,0-6.442Zm0,0" transform="translate(-240.431)" fill="#8f96eb"/>
</svg>
