<svg xmlns="http://www.w3.org/2000/svg" width="43.026" height="43.027" viewBox="0 0 43.026 43.027">
  <g id="add-user" transform="translate(0)">
    <g id="Group_254" data-name="Group 254" transform="translate(0)">
      <g id="Group_253" data-name="Group 253" transform="translate(0)">
        <path id="Path_681" data-name="Path 681" d="M30.89,21.59a21.867,21.867,0,0,0-2.529-1.015,11.429,11.429,0,1,0-13.685.007A21.86,21.86,0,0,0,.109,36.869,5.106,5.106,0,0,0,5.1,43.027H25.8a1.681,1.681,0,1,0,0-3.361H5.1a1.708,1.708,0,0,1-1.344-.639A1.756,1.756,0,0,1,3.4,37.554a18.57,18.57,0,0,1,17.668-14.7q.222.009.446.009t.45-.009a18.308,18.308,0,0,1,7.483,1.777A1.681,1.681,0,0,0,30.89,21.59Zm-8.966-2.1q-.2,0-.41,0t-.407,0a8.068,8.068,0,1,1,.817,0Z" transform="translate(0)" fill="#8690fa"/>
      </g>
    </g>
    <g id="Group_256" data-name="Group 256" transform="translate(27.06 27.06)">
      <g id="Group_255" data-name="Group 255">
        <path id="Path_682" data-name="Path 682" d="M336.286,328.3h-4.622v-4.622a1.681,1.681,0,0,0-3.361,0V328.3h-4.622a1.681,1.681,0,0,0,0,3.361H328.3v4.622a1.681,1.681,0,1,0,3.361,0v-4.622h4.622a1.681,1.681,0,1,0,0-3.361Z" transform="translate(-322 -322)" fill="#fcb839"/>
      </g>
    </g>
  </g>
</svg>
