<svg id="deal" xmlns="http://www.w3.org/2000/svg" width="512" height="512" viewBox="0 0 512 512">
  <g id="Group_482" data-name="Group 482">
    <g id="Group_481" data-name="Group 481">
      <path id="Path_794" data-name="Path 794" d="M308.022,73.7l15.289-16.6a10.405,10.405,0,0,0,1.358-12.253l-9-15.588A10.407,10.407,0,0,0,304.378,24.3l-22.014,4.939-.7-.406L274.931,7.3A10.4,10.4,0,0,0,265,0H247a10.407,10.407,0,0,0-9.933,7.3l-6.73,21.535-.7.406L207.62,24.3a10.408,10.408,0,0,0-11.291,4.951l-9,15.588A10.405,10.405,0,0,0,188.687,57.1l15.289,16.6v.8L188.687,91.1a10.405,10.405,0,0,0-1.358,12.253l9,15.588a10.407,10.407,0,0,0,11.291,4.951l22.014-4.939.7.406,6.73,21.535a10.408,10.408,0,0,0,9.933,7.3h18a10.407,10.407,0,0,0,9.933-7.3l6.73-21.537.7-.4,22.016,4.94a10.408,10.408,0,0,0,11.291-4.951l9-15.588A10.405,10.405,0,0,0,323.312,91.1L308.023,74.5v-.8ZM256,90.747A16.65,16.65,0,1,1,272.65,74.1,16.65,16.65,0,0,1,256,90.747Z" fill="#62a4fb"/>
      <path id="Path_795" data-name="Path 795" d="M308.022,74.5v-.8l15.289-16.6a10.405,10.405,0,0,0,1.358-12.253l-9-15.588A10.407,10.407,0,0,0,304.378,24.3l-12.5,2.8a73.306,73.306,0,0,1-60.32,96.157l5.508,17.626a10.407,10.407,0,0,0,9.933,7.3h18a10.407,10.407,0,0,0,9.933-7.3l6.73-21.537.7-.4,22.016,4.94a10.407,10.407,0,0,0,11.291-4.951l9-15.588A10.405,10.405,0,0,0,323.312,91.1Z" fill="#5392f9"/>
    </g>
  </g>
  <g id="Group_485" data-name="Group 485">
    <path id="Path_796" data-name="Path 796" d="M2.929,237.854l9.374,9.374L130.039,129.492,10.234,10.191A6,6,0,0,0,0,14.442V230.783a10,10,0,0,0,2.929,7.071Z" fill="#5463a7"/>
    <path id="Path_797" data-name="Path 797" d="M3.742,181.806h166.5V226.56H3.742Z" transform="translate(-118.899 121.318) rotate(-45)" fill="#e6f7fe"/>
    <path id="Path_798" data-name="Path 798" d="M108.133,151.4l21.907-21.906L10.234,10.191A6,6,0,0,0,0,14.442V43.265Z" fill="#485696"/>
    <path id="Path_799" data-name="Path 799" d="M119.418,133.891H150.4v44.754h-30.98Z" transform="translate(-70.984 141.165) rotate(-45)" fill="#d3effd"/>
    <path id="Path_800" data-name="Path 800" d="M509.071,237.854l-9.374,9.374L381.961,129.492l119.8-119.3A6,6,0,0,1,512,14.442V230.783A10,10,0,0,1,509.071,237.854Z" fill="#f7e365"/>
    <path id="Path_801" data-name="Path 801" d="M402.629,120.93h44.754v166.5H402.629Z" transform="translate(-19.897 360.329) rotate(-45)" fill="#e6f7fe"/>
    <path id="Path_802" data-name="Path 802" d="M511.995,230.776l-.052-44.15L475.519,223.05,499.7,247.228l9.369-9.369a10,10,0,0,0,2.929-7.083Z" fill="#f3d341"/>
    <path id="Path_803" data-name="Path 803" d="M449.409,233.865h44.754v34.193H449.409Z" transform="translate(-39.274 407.108) rotate(-45)" fill="#d3effd"/>
    <g id="Group_484" data-name="Group 484">
      <path id="Path_804" data-name="Path 804" d="M270.118,491.4a20.814,20.814,0,0,0,.546-29.961l21.64,21.64c7.98,7.98,20.982,8.571,29.241.88A20.814,20.814,0,0,0,322.091,454l5.4,5.4c7.98,7.98,20.982,8.571,29.241.88a20.814,20.814,0,0,0,.546-29.961l-6.083-6.083c7.98,7.98,20.982,8.571,29.241.88a20.814,20.814,0,0,0,.546-29.961L226.566,240.736,256,211.3l-6.623-6.623a31.218,31.218,0,0,0-17.66-8.83l-30.906-4.415a31.218,31.218,0,0,1-17.66-8.83l-21.466-21.466L43.948,278.873l21.578,21.578a83.242,83.242,0,0,1,12.52,16.035L89.576,335.7a83.242,83.242,0,0,0,12.52,16.035L240.878,490.52c7.98,7.98,20.982,8.571,29.24.88Z" fill="#fed2a4"/>
      <path id="Path_805" data-name="Path 805" d="M271.908,430.786a43.732,43.732,0,0,0-29.4-29.381,43.834,43.834,0,0,0-29.434-29.441,43.72,43.72,0,0,0-72.811-18.433l-18.186,18.186,118.8,118.8c7.98,7.98,20.982,8.571,29.24.88a20.813,20.813,0,0,0,.546-29.961l21.64,21.64a21.551,21.551,0,0,0,7.989,5.04,43.725,43.725,0,0,0-28.385-57.333Z" fill="#ffbd86"/>
      <g id="Group_483" data-name="Group 483">
        <path id="Path_806" data-name="Path 806" d="M350.315,161.137,328.849,182.6a31.224,31.224,0,0,1-17.661,8.83l-30.906,4.415a31.218,31.218,0,0,0-17.66,8.83L196.47,270.83A20.813,20.813,0,0,0,225.9,300.265l30.1-30.1L373.736,387.906,409.9,351.738a83.242,83.242,0,0,0,12.52-16.035c6.481-10.484,15-26.884,24.05-35.252l21.578-21.578Z" fill="#f6a96c"/>
        <path id="Path_807" data-name="Path 807" d="M131.02,424.584a20.813,20.813,0,0,0,29.434,0l25.43-25.43A20.813,20.813,0,0,0,156.45,369.72l-25.43,25.43a20.813,20.813,0,0,0,0,29.434Z" fill="#f6a96c"/>
        <path id="Path_808" data-name="Path 808" d="M189.9,483.46a20.813,20.813,0,0,0,29.434,0l25.43-25.43A20.813,20.813,0,0,0,215.326,428.6l-25.43,25.43A20.813,20.813,0,0,0,189.9,483.46Z" fill="#f6a96c"/>
        <path id="Path_809" data-name="Path 809" d="M226.2,505.9a20.813,20.813,0,0,0,29.434,0l18.5-18.5A20.813,20.813,0,0,0,244.7,457.969l-18.5,18.5A20.813,20.813,0,0,0,226.2,505.9Z" fill="#f6a96c"/>
        <path id="Path_810" data-name="Path 810" d="M154.136,460.332a20.813,20.813,0,0,0,29.434,0l31.747-31.747a20.813,20.813,0,0,0-29.434-29.434L154.136,430.9A20.813,20.813,0,0,0,154.136,460.332Z" fill="#f6a96c"/>
      </g>
    </g>
  </g>
  <path id="Path_811" data-name="Path 811" d="M286.937,338.756a7.5,7.5,0,1,0-10.607,10.606l74.914,74.914a21.327,21.327,0,0,0,25.017,3.8Z" fill="#ffbd86"/>
  <path id="Path_812" data-name="Path 812" d="M257.5,368.19A7.5,7.5,0,0,0,246.9,378.8l80.645,80.645a21.327,21.327,0,0,0,25.016,3.8Z" fill="#ffbd86"/>
  <path id="Path_813" data-name="Path 813" d="M443.929,254.751l-21.577,21.577a83.249,83.249,0,0,0-12.52,16.036L398.3,311.581c-5.236,9.348-14.612,18.188-22.2,25.712a10.406,10.406,0,0,1-14.717,0l-67.22-67.22,17.16,7.016a49.334,49.334,0,0,0,38.8-.7l29.264-13.207a7.5,7.5,0,0,0-6.17-13.672l-29.264,13.207A34.265,34.265,0,0,1,317,263.2l-20.932-8.558a28.243,28.243,0,0,0-30.734,6.187L256,270.169,373.736,387.9,409.9,351.737A83.293,83.293,0,0,0,422.424,335.7c6.481-10.484,15-26.884,24.05-35.252l21.577-21.577Z" fill="#ea9b58"/>
</svg>
