<svg xmlns="http://www.w3.org/2000/svg" width="95.729" height="61.777" viewBox="0 0 95.729 61.777">
  <g id="hirenet-logo-v1" transform="translate(-0.25 -0.203)">
    <circle id="Ellipse_1" data-name="Ellipse 1" cx="30.889" cy="30.889" r="30.889" transform="translate(0.25 0.203)" fill="#fcb81e"/>
    <circle id="Ellipse_2" data-name="Ellipse 2" cx="20.483" cy="20.483" r="20.483" transform="translate(55.012 12.335)" fill="#fff"/>
    <path id="hire" d="M8.35-12.975a4.217,4.217,0,0,0-3.7,1.85V-17.5H1.5V0H4.65V-7.05A2.618,2.618,0,0,1,7.35-9.9c1.8,0,2.475,1.225,2.475,2.85V0H13V-7.7C13-10.375,11.55-12.975,8.35-12.975ZM16,0h3.175V-12.675H16Zm1.575-14.525a1.686,1.686,0,0,0,1.7-1.7,1.681,1.681,0,0,0-1.7-1.675A1.675,1.675,0,0,0,15.9-16.225,1.681,1.681,0,0,0,17.575-14.525ZM25.35-10.6v-2.075H22.175V0H25.35V-5.225c0-2.35.475-4.75,4.225-4.3v-3.45A5.035,5.035,0,0,0,25.35-10.6ZM37.3-12.975a6.424,6.424,0,0,0-6.475,6.65c0,3.85,2.775,6.65,6.975,6.65A6.618,6.618,0,0,0,43.175-2.25l-2.55-1.5A3.7,3.7,0,0,1,37.8-2.5a3.474,3.474,0,0,1-3.6-2.6h9.4C44.175-10.1,41.125-12.975,37.3-12.975ZM34.2-7.55a3.153,3.153,0,0,1,3.15-2.6,2.992,2.992,0,0,1,3.15,2.6Z" transform="translate(9.139 40.092)"/>
    <path id="net" d="M7.014-10.9A3.542,3.542,0,0,0,3.906-9.345v-1.3H1.26V0H3.906V-5.922A2.2,2.2,0,0,1,6.174-8.316c1.512,0,2.079,1.029,2.079,2.394V0H10.92V-6.468C10.92-8.715,9.7-10.9,7.014-10.9Zm11.235,0A5.4,5.4,0,0,0,12.81-5.313c0,3.234,2.331,5.586,5.859,5.586A5.559,5.559,0,0,0,23.184-1.89L21.042-3.15A3.107,3.107,0,0,1,18.669-2.1a2.918,2.918,0,0,1-3.024-2.184h7.9C24.024-8.484,21.462-10.9,18.249-10.9Zm-2.6,4.557a2.648,2.648,0,0,1,2.646-2.184,2.513,2.513,0,0,1,2.646,2.184ZM30.891-8.211v-2.436H28.623v-2.226H25.956v2.226H24.444v2.436h1.512v4.326c0,2.205,1.092,4.032,3.822,4.032A3.447,3.447,0,0,0,30.891,0V-2.436c-.189.021-.441.042-.63.042-1.47,0-1.638-.714-1.638-1.932V-8.211Z" transform="translate(59.495 38.592)" fill="#485696"/>
  </g>
</svg>
