<svg id="location" xmlns="http://www.w3.org/2000/svg" width="65.501" height="74.526" viewBox="0 0 65.501 74.526">
  <path id="Path_608" data-name="Path 608" d="M72.746,335.229a2.23,2.23,0,0,0-2.052,1l-6.943,10.829-6.943-10.829a2.145,2.145,0,0,0-2.052-1C40.3,336.758,31,341.692,31,347.849c0,8.515,16.856,13.1,32.751,13.1s32.751-4.585,32.751-13.1C96.5,341.692,87.2,336.758,72.746,335.229Z" transform="translate(-31 -286.424)" fill="#fcb839"/>
  <path id="Path_609" data-name="Path 609" d="M288.75,347.9c0,8.515-16.856,13.1-32.751,13.1V347.112l6.943-10.829a2.229,2.229,0,0,1,2.052-1C279.449,336.807,288.75,341.741,288.75,347.9Z" transform="translate(-223.249 -286.473)" fill="#d59e23"/>
  <path id="Path_610" data-name="Path 610" d="M115.017,0A24,24,0,0,0,95.5,37.991L113.183,65.88a2.177,2.177,0,0,0,3.668,0L134.624,37.9A24.029,24.029,0,0,0,115.017,0Zm0,34.934a10.917,10.917,0,1,1,10.917-10.917A10.929,10.929,0,0,1,115.017,34.934Z" transform="translate(-82.267)" fill="red"/>
  <path id="Path_611" data-name="Path 611" d="M256,0V13.1h0a10.917,10.917,0,1,1,0,21.834h0v31.95a2.109,2.109,0,0,0,1.834-1L275.607,37.9A24.029,24.029,0,0,0,256,0Z" transform="translate(-223.249)" fill="#c32020"/>
</svg>
