<svg xmlns="http://www.w3.org/2000/svg" width="43.831" height="43.831" viewBox="0 0 43.831 43.831">
  <g id="log-in" transform="translate(-24 -24)">
    <path id="Path_678" data-name="Path 678" d="M54.984,236.534H26.267a2.267,2.267,0,0,1,0-4.534H54.984a2.267,2.267,0,1,1,0,4.534Z" transform="translate(0 -188.352)" fill="#fcb839"/>
    <path id="Path_679" data-name="Path 679" d="M202.268,158.67a2.267,2.267,0,0,1-1.362-4.081l9.673-7.255-9.673-7.255a2.267,2.267,0,1,1,2.721-3.627l12.091,9.068a2.267,2.267,0,0,1,0,3.627l-12.091,9.068a2.257,2.257,0,0,1-1.358.453Z" transform="translate(-159.373 -101.419)" fill="#fcb839"/>
    <path id="Path_680" data-name="Path 680" d="M123.518,67.831H90.267A2.267,2.267,0,0,1,88,65.564V56.5a2.267,2.267,0,0,1,4.534,0v6.8h28.717V28.534H92.534v6.8a2.267,2.267,0,0,1-4.534,0V26.267A2.267,2.267,0,0,1,90.267,24h33.251a2.267,2.267,0,0,1,2.267,2.267v39.3A2.267,2.267,0,0,1,123.518,67.831Z" transform="translate(-57.954)" fill="#8690fa"/>
  </g>
</svg>
