<svg xmlns="http://www.w3.org/2000/svg" xmlns:xlink="http://www.w3.org/1999/xlink" width="1920" height="325" viewBox="0 0 1920 325">
  <defs>
    <clipPath id="clip-path">
      <rect id="Rectangle_204" data-name="Rectangle 204" width="1920" height="325" transform="translate(0 1945)" fill="#fff" stroke="#707070" stroke-width="1"/>
    </clipPath>
  </defs>
  <g id="Mask_Group_12" data-name="Mask Group 12" transform="translate(0 -1945)" clip-path="url(#clip-path)">
    <rect id="Rectangle_136" data-name="Rectangle 136" width="1920" height="325" transform="translate(0 1945)" fill="#fcb839"/>
    <g id="Group_149" data-name="Group 149" transform="translate(-70.458 1974.004)">
      <path id="Path_605" data-name="Path 605" d="M56.11,0A56.11,56.11,0,1,1,0,56.11,56.11,56.11,0,0,1,56.11,0Z" transform="translate(389.7 137.533)" fill="#485696"/>
      <circle id="Ellipse_25" data-name="Ellipse 25" cx="53" cy="53" r="53" transform="translate(1875.197 212.785) rotate(-60)" fill="#485696"/>
      <circle id="Ellipse_26" data-name="Ellipse 26" cx="112.506" cy="112.506" r="112.506" transform="translate(207.881 15.989)" fill="#fff"/>
      <path id="Path_606" data-name="Path 606" d="M34.676,0A34.676,34.676,0,1,1,0,34.676,34.676,34.676,0,0,1,34.676,0Z" transform="translate(1835.815 214.364) rotate(-60)" fill="#fc7a27"/>
      <circle id="Ellipse_27" data-name="Ellipse 27" cx="56.479" cy="56.479" r="56.479" transform="translate(1739.765 97.824) rotate(-60)" fill="#485696"/>
      <path id="Path_607" data-name="Path 607" d="M57.766,0A57.766,57.766,0,1,1,0,57.766,57.766,57.766,0,0,1,57.766,0Z" transform="translate(0 129.836) rotate(-60)" fill="#fc7a27"/>
    </g>
  </g>
</svg>
