<svg id="color" enable-background="new 0 0 24 24" height="512" viewBox="0 0 24 24" width="512" xmlns="http://www.w3.org/2000/svg"><path d="m21 1h-18c-1.654 0-3 1.346-3 3v16c0 1.654 1.346 3 3 3h18c1.654 0 3-1.346 3-3v-16c0-1.654-1.346-3-3-3z" fill="#607d8b"/><path d="m21 21h-18c-.551 0-1-.448-1-1v-14h20v14c0 .552-.449 1-1 1z" fill="#fff"/><path d="m12 1h-9c-1.654 0-3 1.346-3 3v16c0 1.654 1.346 3 3 3h9v-2h-9c-.551 0-1-.448-1-1v-14h10z" fill="#546d79"/><path d="m12 6h-10v14c0 .552.449 1 1 1h9z" fill="#dedede"/><path d="m12 9h-7c-.552 0-1 .448-1 1v1.5c0 .552.448 1 1 1s1-.448 1-1v-.5h1.5v6h-.5c-.552 0-1 .447-1 1s.448 1 1 1h3c.552 0 1-.447 1-1s-.448-1-1-1h-.5v-6h1.5v.5c0 .552.448 1 1 1s1-.448 1-1v-1.5c0-.552-.448-1-1-1z" fill="#2196f3"/><path d="m8.5 9h-3.5c-.552 0-1 .448-1 1v1.5c0 .552.448 1 1 1s1-.448 1-1v-.5h1.5v6h-.5c-.552 0-1 .447-1 1s.448 1 1 1h1.5z" fill="#1d83d4"/><g fill="#90a4ae"><path d="m19 11h-3c-.552 0-1-.448-1-1s.448-1 1-1h3c.552 0 1 .448 1 1s-.448 1-1 1z"/><path d="m19 15h-3c-.552 0-1-.447-1-1s.448-1 1-1h3c.552 0 1 .447 1 1s-.448 1-1 1z"/><path d="m19 19h-3c-.552 0-1-.447-1-1s.448-1 1-1h3c.552 0 1 .447 1 1s-.448 1-1 1z"/></g><path d="m17.5 9h-1.5c-.552 0-1 .448-1 1s.448 1 1 1h1.5z" fill="#7d8f97"/><path d="m17.5 13h-1.5c-.552 0-1 .447-1 1s.448 1 1 1h1.5z" fill="#7d8f97"/><path d="m17.5 17h-1.5c-.552 0-1 .447-1 1s.448 1 1 1h1.5z" fill="#7d8f97"/></svg>