<svg id="share" xmlns="http://www.w3.org/2000/svg" width="276.818" height="276.817" viewBox="0 0 276.818 276.817">
  <g id="Group_167" data-name="Group 167" transform="translate(0 168)">
    <path id="Path_628" data-name="Path 628" d="M42.93,428.559H5.57A5.57,5.57,0,0,1,0,422.989V335.916a5.57,5.57,0,0,1,5.57-5.57H42.93a5.57,5.57,0,0,1,5.57,5.57v87.073A5.57,5.57,0,0,1,42.93,428.559Z" transform="translate(0 -319.741)" fill="#485696"/>
    <path id="Path_629" data-name="Path 629" d="M71.707,428.559H62.648V330.347h9.059a5.57,5.57,0,0,1,5.57,5.57v87.073A5.57,5.57,0,0,1,71.707,428.559Z" transform="translate(-28.777 -319.742)" fill="#fcb839"/>
    <path id="Path_630" data-name="Path 630" d="M288.59,315.881l-28.529,29.1H201.512a16.672,16.672,0,0,0,16.665-17.141,16.9,16.9,0,0,0-17.012-16.2H154.713a24.249,24.249,0,0,0-9.881,2.1l-34.69,15.477H89.705v84.875h48.941a60.638,60.638,0,0,0,14.572-1.777L255.846,386.9a60.628,60.628,0,0,0,29.8-17.534l27.762-29.748a17.172,17.172,0,0,0-24.815-23.738Z" transform="translate(-41.205 -310.731)" fill="#fed2a4"/>
    <path id="Path_631" data-name="Path 631" d="M315.332,325.41a17.091,17.091,0,0,1-4.279,8.322L283.291,363.48a60.626,60.626,0,0,1-29.8,17.534L150.866,406.427a60.638,60.638,0,0,1-14.572,1.777H89.7v12.629h48.941a60.639,60.639,0,0,0,14.572-1.777l102.628-25.413a60.624,60.624,0,0,0,29.8-17.534l27.762-29.748A17.179,17.179,0,0,0,315.332,325.41Z" transform="translate(-41.205 -317.474)" fill="#ffbd86"/>
  </g>
  <circle id="Ellipse_30" data-name="Ellipse 30" cx="75.393" cy="75.393" r="75.393" transform="translate(91.147 0)" fill="#d3effd"/>
  <path id="Path_632" data-name="Path 632" d="M303.758,29.421A75.353,75.353,0,0,1,198.006,135.173,75.365,75.365,0,1,0,303.758,29.421Z" transform="translate(-90.952 -13.514)" fill="#b2e5fb"/>
  <g id="Group_168" data-name="Group 168" transform="translate(109.995 18.848)">
    <path id="Path_633" data-name="Path 633" d="M316.537,95.085V87.729a5.57,5.57,0,0,0-4.28-5.418l-10.9-2.6a5.579,5.579,0,0,1-3.878-3.351q-.164-.406-.336-.809a5.579,5.579,0,0,1,.367-5.126l5.875-9.546a5.57,5.57,0,0,0-.805-6.858l-5.2-5.2a5.57,5.57,0,0,0-6.858-.805l-9.546,5.875a5.581,5.581,0,0,1-5.126.367q-.4-.172-.809-.336a5.578,5.578,0,0,1-3.351-3.878l-2.6-10.9a5.57,5.57,0,0,0-5.418-4.28h-7.357a5.57,5.57,0,0,0-5.418,4.28l-2.6,10.9a5.579,5.579,0,0,1-3.351,3.878q-.406.164-.809.336a5.579,5.579,0,0,1-5.126-.367l-9.546-5.875a5.57,5.57,0,0,0-6.858.805l-5.2,5.2a5.57,5.57,0,0,0-.805,6.858l5.875,9.546a5.581,5.581,0,0,1,.367,5.126q-.172.4-.336.809a5.578,5.578,0,0,1-3.878,3.351l-10.9,2.6a5.57,5.57,0,0,0-4.28,5.418v7.357a5.57,5.57,0,0,0,4.28,5.418l10.9,2.6a5.579,5.579,0,0,1,3.878,3.351q.164.406.336.809a5.579,5.579,0,0,1-.367,5.126l-5.875,9.546a5.57,5.57,0,0,0,.805,6.858l5.2,5.2a5.57,5.57,0,0,0,6.858.805l9.546-5.875a5.581,5.581,0,0,1,5.126-.367q.4.172.809.336a5.578,5.578,0,0,1,3.351,3.878l2.6,10.9a5.57,5.57,0,0,0,5.418,4.28h7.357a5.57,5.57,0,0,0,5.418-4.28l2.6-10.9a5.579,5.579,0,0,1,3.351-3.878q.406-.164.809-.336a5.579,5.579,0,0,1,5.126.367l9.546,5.875a5.57,5.57,0,0,0,6.858-.805l5.2-5.2a5.57,5.57,0,0,0,.805-6.858l-5.875-9.546a5.58,5.58,0,0,1-.367-5.126q.172-.4.336-.809a5.578,5.578,0,0,1,3.878-3.351l10.9-2.6A5.57,5.57,0,0,0,316.537,95.085Zm-56.545,12.477a16.155,16.155,0,1,1,16.155-16.155A16.156,16.156,0,0,1,259.992,107.563Z" transform="translate(-203.447 -34.862)" fill="#80b6fc"/>
    <path id="Path_634" data-name="Path 634" d="M318.726,147.689a148.15,148.15,0,0,1-31.936,24.434l2.388,10.031a5.57,5.57,0,0,0,5.418,4.28h7.357a5.57,5.57,0,0,0,5.418-4.28l2.6-10.9a5.579,5.579,0,0,1,3.351-3.878q.406-.164.809-.336a5.579,5.579,0,0,1,5.126.367l9.546,5.875a5.57,5.57,0,0,0,6.858-.805l5.2-5.2a5.57,5.57,0,0,0,.805-6.858l-5.875-9.546a5.582,5.582,0,0,1-.367-5.126q.172-.4.336-.809a5.578,5.578,0,0,1,3.878-3.351l10.9-2.6a5.57,5.57,0,0,0,4.28-5.418V126.21a5.57,5.57,0,0,0-4.28-5.418l-9.048-2.154a149.538,149.538,0,0,1-22.766,29.051Z" transform="translate(-241.73 -73.344)" fill="#62a4fb"/>
  </g>
  <path id="Path_635" data-name="Path 635" d="M234.13,366.975h31.812a16.665,16.665,0,0,0,14.442-8.355H234.13a4.177,4.177,0,0,0,0,8.355Z" transform="translate(-105.627 -164.729)" fill="#ffbd86"/>
</svg>
