<svg id="Capa_1" enable-background="new 0 0 512.003 512.003" height="512" viewBox="0 0 512.003 512.003" width="512" xmlns="http://www.w3.org/2000/svg"><g><path d="m256.001 29.656v452.692h-220.958c-12.655 0-23.98-6.547-30.297-17.493-6.327-10.955-6.327-24.04 0-34.985l220.958-382.722c6.327-10.945 17.652-17.492 30.297-17.492z" fill="#fd5"/><path d="m507.257 464.855c-6.317 10.946-17.643 17.493-30.297 17.493h-220.959v-452.692c12.645 0 23.97 6.547 30.297 17.493l220.958 382.721c6.353 11.003 6.305 24.064.001 34.985z" fill="#ffb555"/><g fill="#0b799c"><path d="m256.001 375.522 7.597 18.137-7.597 18.137c-10.016 0-18.132-8.117-18.132-18.132 0-10.016 8.116-18.142 18.132-18.142z"/><path d="m256.001 147.866 7.597 96.64-7.597 104.707c-8.197-.1-14.794-6.767-14.794-14.984v-171.379c0-8.216 6.598-14.884 14.794-14.984z"/></g><g fill="#07485e"><path d="m274.134 393.664c0 10.016-8.117 18.132-18.133 18.132v-36.275c10.016.001 18.133 8.127 18.133 18.143z"/><path d="m271.195 162.85v171.379c0 8.287-6.717 14.994-14.994 14.994-.07 0-.13 0-.2-.01v-201.347c.07-.01.13-.01.2-.01 8.277 0 14.994 6.708 14.994 14.994z"/></g></g></svg>