<svg xmlns="http://www.w3.org/2000/svg" width="177" height="177" viewBox="0 0 177 177">
  <g id="Group_395" data-name="Group 395" transform="translate(-1017 -545)">
    <rect id="Rectangle_201" data-name="Rectangle 201" width="177" height="177" transform="translate(1017 545)" fill="#c9c9c9"/>
    <g id="user" transform="translate(1044 566.383)">
      <path id="Path_740" data-name="Path 740" d="M144.818,32.8A32.8,32.8,0,1,1,112.022,0,32.8,32.8,0,0,1,144.818,32.8Zm0,0" transform="translate(-51.38)" fill="#fff"/>
      <path id="Path_741" data-name="Path 741" d="M61.5,222.09a60.973,60.973,0,0,0-61,61v14a3.473,3.473,0,0,0,3.474,3.474H119.026a3.473,3.473,0,0,0,3.474-3.474v-14A60.973,60.973,0,0,0,61.5,222.09Zm0,0" transform="translate(0 -144.944)" fill="#fff"/>
    </g>
  </g>
</svg>
