<svg xmlns="http://www.w3.org/2000/svg" width="200.541" height="197.395" viewBox="0 0 200.541 197.395">
  <g id="Group_319" data-name="Group 319" transform="translate(-180.216 -177.268)">
    <g id="settings" transform="translate(180.216 177.268)">
      <g id="Group_318" data-name="Group 318" transform="translate(0 0.012)">
        <path id="Path_697" data-name="Path 697" d="M153.23,132.981,149.7,122.536a72.761,72.761,0,0,0,8.045-19.761l8.681-2.893a4.874,4.874,0,0,0,3.388-4.658V75.179a4.873,4.873,0,0,0-3.388-4.658l-8.681-2.894a71.6,71.6,0,0,0-6.987-18,3.638,3.638,0,0,0-.847-1.13L121.682,20.27a3.631,3.631,0,0,0-1.13-.847,73.6,73.6,0,0,0-16.232-6.493L99.451,2.787A5.241,5.241,0,0,0,95,.035H74.961a5.241,5.241,0,0,0-4.446,2.752L65.645,12.93a74.389,74.389,0,0,0-19.55,8.4l-8.328-4.093a4.854,4.854,0,0,0-5.716.918L17.935,32.268a4.854,4.854,0,0,0-.918,5.716l4.093,8.328a74.378,74.378,0,0,0-8.4,19.55L2.9,70.732A5.241,5.241,0,0,0,.15,75.178V95.222A5.016,5.016,0,0,0,2.9,99.668l9.811,4.87a72.675,72.675,0,0,0,8.116,18.985,4.3,4.3,0,0,0,.706.988l24.137,24.137a4.3,4.3,0,0,0,.988.706,71.822,71.822,0,0,0,20.749,8.61l2.894,9.014a4.873,4.873,0,0,0,4.658,3.388H95a4.85,4.85,0,0,0,4.658-3.388l2.893-9.014a73.476,73.476,0,0,0,19.691-7.975l10.516,3.458a5,5,0,0,0,5.153-1.2l14.115-14.115A5.106,5.106,0,0,0,153.23,132.981Zm-68.247-2.893a44.469,44.469,0,0,1-15.457-2.611L42.778,100.727A43.612,43.612,0,0,1,40.1,85.2,44.819,44.819,0,0,1,84.983,40.314,43.6,43.6,0,0,1,100.51,43l26.748,26.748a45.2,45.2,0,0,1-42.275,60.343Z" transform="translate(-0.15 -0.035)" fill="#bfe1ff"/>
        <path id="Path_698" data-name="Path 698" d="M219.128,207.03l-14.115,14.115a5,5,0,0,1-5.153,1.2l-10.516-3.458a73.48,73.48,0,0,1-19.691,7.975l-2.893,9.014a4.85,4.85,0,0,1-4.658,3.388H142.059a4.873,4.873,0,0,1-4.658-3.388l-2.894-9.013a71.836,71.836,0,0,1-20.749-8.61,4.3,4.3,0,0,1-.988-.706L100.7,205.478l22.514-22.514,13.409,13.409a45.2,45.2,0,0,0,57.732-57.732l-13.409-13.409L202.9,103.283,217.011,117.4a3.634,3.634,0,0,1,.847,1.13,71.6,71.6,0,0,1,6.987,18l8.681,2.894a4.873,4.873,0,0,1,3.388,4.658v20.043a4.873,4.873,0,0,1-3.388,4.658l-8.681,2.893a72.761,72.761,0,0,1-8.045,19.761l3.529,10.445A5.109,5.109,0,0,1,219.128,207.03Z" transform="translate(-67.248 -68.932)" fill="#bfe1ff"/>
      </g>
      <path id="Path_699" data-name="Path 699" d="M316.692,119.564l-20.679-7.552-4.305-1.623c0-1.27-3.247-19.056-3.247-19.056,16.374-16.374,7.2-7.058,23.29-23.149L338.5,69.242v.282l1.341,26.748C323.75,112.365,333.066,103.19,316.692,119.564Z" transform="translate(-192.54 -45.499)" fill="#ffda45"/>
      <path id="Path_700" data-name="Path 700" d="M219.128,207.03l-14.115,14.115a5,5,0,0,1-5.153,1.2l-10.516-3.458a73.48,73.48,0,0,1-19.691,7.975l-2.893,9.014a4.85,4.85,0,0,1-4.658,3.388H142.059a4.873,4.873,0,0,1-4.658-3.388l-2.894-9.013a71.836,71.836,0,0,1-20.749-8.61,4.3,4.3,0,0,1-.988-.706L100.7,205.478l22.514-22.514,13.409,13.409a45.2,45.2,0,0,0,57.732-57.732l-13.409-13.409L202.9,103.283,217.011,117.4a3.634,3.634,0,0,1,.847,1.13,71.6,71.6,0,0,1,6.987,18l8.681,2.894a4.873,4.873,0,0,1,3.388,4.658v20.043a4.873,4.873,0,0,1-3.388,4.658l-8.681,2.893a72.761,72.761,0,0,1-8.045,19.761l3.529,10.445A5.109,5.109,0,0,1,219.128,207.03Z" transform="translate(-67.248 -68.921)" fill="#a3d4ff"/>
      <path id="Path_701" data-name="Path 701" d="M162.538,165.994,95,233.536l-17.926,9.316-17.15-2.046-.071-.353-2.4-17.221,9.175-17.785,67.683-67.683Z" transform="translate(-38.386 -91.93)" fill="#65b1fc"/>
      <path id="Path_702" data-name="Path 702" d="M331.839,122.253,311.16,114.7l42.487-42.487,1.341,26.748C338.9,115.055,348.213,105.88,331.839,122.253Z" transform="translate(-207.687 -48.189)" fill="#ffbc36"/>
      <path id="Path_703" data-name="Path 703" d="M167.352,194.305,99.81,261.847l-17.926,9.316-17.15-2.046-.071-.353,88.573-88.573Z" transform="translate(-43.2 -120.241)" fill="#1689fc"/>
      <path id="Path_704" data-name="Path 704" d="M48.886,414.275c-12.069,6.14-6.564,3.317-26.608,13.621a5.042,5.042,0,0,1-6.634-6.634c10.445-20.185,7.552-14.609,13.621-26.608A24.947,24.947,0,0,1,42.04,401.5,25.511,25.511,0,0,1,48.886,414.275Z" transform="translate(-10.201 -263.353)" fill="#fec478"/>
      <path id="Path_705" data-name="Path 705" d="M45.028,415.233a25.509,25.509,0,0,1,6.846,12.774c-12.069,6.14-6.564,3.317-26.608,13.621a4.951,4.951,0,0,1-5.575-1.059Z" transform="translate(-13.19 -277.085)" fill="#feb756"/>
      <path id="Path_706" data-name="Path 706" d="M403,34.33,386.555,50.775,358.466,22.685,374.91,6.241c8.2-8.352,19.964-8.266,28.16-.071C411.643,14.743,411.657,25.828,403,34.33Z" transform="translate(-239.254 0)" fill="#2864f0"/>
      <path id="Path_707" data-name="Path 707" d="M414.725,63.149,400.68,49.1l30.56-30.56c8.573,8.573,8.587,19.658-.07,28.16Z" transform="translate(-267.424 -12.375)" fill="#0053bf"/>
    </g>
    <g id="checked" transform="translate(295.637 289.541)">
      <circle id="Ellipse_36" data-name="Ellipse 36" cx="42.56" cy="42.56" r="42.56" transform="translate(0 0)" fill="#7bc778"/>
      <path id="Path_687" data-name="Path 687" d="M125.588,83.029a42.686,42.686,0,0,1-42.56,42.56,41.88,41.88,0,0,1-33.25-15.96,41.991,41.991,0,0,0,26.6,9.31,42.686,42.686,0,0,0,42.56-42.56,41.991,41.991,0,0,0-9.31-26.6A41.879,41.879,0,0,1,125.588,83.029Z" transform="translate(-40.467 -40.469)" fill="#69ad66"/>
      <path id="Path_688" data-name="Path 688" d="M145.04,128.861l-27.664,30.324a4.544,4.544,0,0,1-6.916,0l-11.7-13.034a4.706,4.706,0,1,1,6.916-6.384l8.246,9.31,24.206-26.334a4.665,4.665,0,0,1,6.65-.266A4.586,4.586,0,0,1,145.04,128.861Z" transform="translate(-79.337 -98.537)" fill="#fff"/>
    </g>
  </g>
</svg>
