<svg xmlns="http://www.w3.org/2000/svg" width="35.37" height="35.369" viewBox="0 0 35.37 35.369">
  <g id="edit" transform="translate(0 -0.001)">
    <path id="Path_691" data-name="Path 691" d="M25.054,33.475H4.421A4.427,4.427,0,0,1,0,29.054V8.421A4.427,4.427,0,0,1,4.421,4h11.79a1.474,1.474,0,1,1,0,2.948H4.421A1.475,1.475,0,0,0,2.948,8.421V29.054a1.475,1.475,0,0,0,1.474,1.474H25.054a1.475,1.475,0,0,0,1.474-1.474V17.264a1.474,1.474,0,1,1,2.948,0v11.79A4.427,4.427,0,0,1,25.054,33.475Z" transform="translate(0 1.895)" fill="#607d8b"/>
    <path id="Path_692" data-name="Path 692" d="M21.441,3.177,9.781,14.837a.746.746,0,0,0-.2.376L8.537,20.424a.737.737,0,0,0,.724.881l.144-.015,5.21-1.042a.728.728,0,0,0,.377-.2l11.66-11.66Z" transform="translate(4.037 1.505)" fill="#8f96eb"/>
    <path id="Path_693" data-name="Path 693" d="M25.6,1.078a3.687,3.687,0,0,0-5.21,0l-2.04,2.04,5.21,5.21,2.04-2.04a3.684,3.684,0,0,0,0-5.21Z" transform="translate(8.693)" fill="#8f96eb"/>
    <path id="Path_694" data-name="Path 694" d="M27.584,12a1.473,1.473,0,0,0-1.474,1.474v11.79a1.475,1.475,0,0,1-1.474,1.474H4a1.469,1.469,0,0,1-1.042-.432L.88,28.388A4.4,4.4,0,0,0,4,29.685H24.637a4.427,4.427,0,0,0,4.421-4.421V13.474A1.472,1.472,0,0,0,27.584,12Z" transform="translate(0.417 5.685)" fill="#546d79"/>
    <g id="Group_304" data-name="Group 304" transform="translate(12.776 1.078)">
      <path id="Path_695" data-name="Path 695" d="M23.977,4.944,8.669,20.252a.737.737,0,0,0,.522.215l.144-.015,5.21-1.042a.728.728,0,0,0,.377-.2l11.66-11.66Z" transform="translate(-8.669 1.263)" fill="#7c84e8"/>
      <path id="Path_696" data-name="Path 696" d="M24.761.732,20.117,5.376l2.606,2.606,2.04-2.04a3.686,3.686,0,0,0,0-5.21Z" transform="translate(-3.245 -0.732)" fill="#7c84e8"/>
    </g>
  </g>
</svg>
