<svg xmlns="http://www.w3.org/2000/svg" width="186.727" height="186.726" viewBox="0 0 186.727 186.726">
  <g id="read" transform="translate(0 -0.001)">
    <path id="Path_727" data-name="Path 727" d="M244.946.58a5.47,5.47,0,0,0-5.729.516L172.185,51.369,105.154,1.1A5.47,5.47,0,0,0,96.4,5.472V110.944a5.47,5.47,0,0,0,5.47,5.47H242.5a5.47,5.47,0,0,0,5.47-5.47V5.472A5.47,5.47,0,0,0,244.946.58Z" transform="translate(-61.244 -0.001)" fill="#deecf1"/>
    <path id="Path_728" data-name="Path 728" d="M376.961.579a5.468,5.468,0,0,0-5.729.516L304.2,51.369v65.045h70.314a5.47,5.47,0,0,0,5.47-5.47V5.472A5.47,5.47,0,0,0,376.961.579Z" transform="translate(-193.259)" fill="#a2d8f4"/>
    <path id="Path_729" data-name="Path 729" d="M247.689,3.743A5.47,5.47,0,0,0,242.5,0H101.872A5.471,5.471,0,0,0,98.59,9.849L168.9,62.584a5.47,5.47,0,0,0,6.565,0L245.782,9.849A5.47,5.47,0,0,0,247.689,3.743Z" transform="translate(-61.244 -0.001)" fill="#7cc8f0"/>
    <path id="Path_730" data-name="Path 730" d="M58.206,192.8a58.206,58.206,0,1,0,58.206,58.206A58.272,58.272,0,0,0,58.206,192.8Z" transform="translate(0 -122.487)" fill="#91eb90"/>
    <path id="Path_731" data-name="Path 731" d="M159.6,192.8V309.214a58.206,58.206,0,1,0,0-116.411Z" transform="translate(-101.395 -122.487)" fill="#00ab94"/>
    <path id="Path_732" data-name="Path 732" d="M113.589,339.647h0a5.469,5.469,0,0,1-3.868-1.6L98,326.326a5.471,5.471,0,0,1,7.737-7.736l7.851,7.851,19.57-19.57a5.47,5.47,0,1,1,7.736,7.736l-23.438,23.438A5.47,5.47,0,0,1,113.589,339.647Z" transform="translate(-61.243 -193.937)" fill="#fff"/>
    <path id="Path_733" data-name="Path 733" d="M181.208,306.871a5.471,5.471,0,0,0-7.736,0l-13.618,13.618.155,15.317,21.2-21.2A5.47,5.47,0,0,0,181.208,306.871Z" transform="translate(-101.555 -193.937)" fill="#deecf1"/>
    <path id="Path_734" data-name="Path 734" d="M379.7,3.743A5.471,5.471,0,0,0,374.515,0H304.2V63.678a5.462,5.462,0,0,0,3.282-1.094L377.8,9.849A5.47,5.47,0,0,0,379.7,3.743Z" transform="translate(-193.259 -0.001)" fill="#4bb9ec"/>
  </g>
</svg>
