<svg xmlns="http://www.w3.org/2000/svg" width="98.71" height="85.359" viewBox="0 0 98.71 85.359">
  <g id="gallery" transform="translate(-13.351 -44.132)">
    <g id="Group_239" data-name="Group 239" transform="translate(26.483 44.132)">
      <g id="Group_238" data-name="Group 238" transform="translate(0 0)">
        <g id="Group_237" data-name="Group 237">
          <g id="Group_236" data-name="Group 236">
            <path id="Path_657" data-name="Path 657" d="M203.295,156.661H189.944a3.281,3.281,0,0,1-3.283-3.283V117.264H124.283A3.281,3.281,0,0,1,121,113.981v-19.7A3.281,3.281,0,0,1,124.283,91h79.012a3.281,3.281,0,0,1,3.283,3.283v59.095A3.281,3.281,0,0,1,203.295,156.661Z" transform="translate(-121 -91)" fill="#e6f2f2"/>
          </g>
        </g>
      </g>
    </g>
    <path id="Path_658" data-name="Path 658" d="M308.747,91H256v26.264h36.113v36.113a3.281,3.281,0,0,0,3.283,3.283h13.351a3.281,3.281,0,0,0,3.283-3.283V94.283A3.281,3.281,0,0,0,308.747,91Z" transform="translate(-199.969 -46.868)" fill="#cfe6e6"/>
    <g id="Group_243" data-name="Group 243" transform="translate(13.351 63.83)">
      <g id="Group_242" data-name="Group 242" transform="translate(0 0)">
        <g id="Group_241" data-name="Group 241">
          <g id="Group_240" data-name="Group 240">
            <path id="Path_659" data-name="Path 659" d="M143.076,181H64.283A3.251,3.251,0,0,0,61,184.283v59.095a3.775,3.775,0,0,0,.919,2.364l22.062-8.93h26.264l35.194,8.93a3.775,3.775,0,0,0,.919-2.364V184.283A3.251,3.251,0,0,0,143.076,181Z" transform="translate(-61 -181)" fill="#66b3ff"/>
          </g>
        </g>
      </g>
    </g>
    <path id="Path_660" data-name="Path 660" d="M295.4,181H256v55.812h6.566l35.194,8.93a3.775,3.775,0,0,0,.919-2.364V184.283A3.251,3.251,0,0,0,295.4,181Z" transform="translate(-199.969 -117.17)" fill="#4d88ff"/>
    <g id="Gallery_1_" transform="translate(14.27 76.963)">
      <path id="Path_661" data-name="Path 661" d="M148.721,356.048a3.775,3.775,0,0,1-2.364.919H67.564a3.775,3.775,0,0,1-2.364-.919l19.74-19.74a3.283,3.283,0,0,1,4.643,0l1.923,1.923a3.283,3.283,0,0,0,4.643,0L111.2,323.175a3.283,3.283,0,0,1,4.643,0Z" transform="translate(-65.2 -304.438)" fill="#ade65c"/>
      <g id="Group_244" data-name="Group 244" transform="translate(12.213)">
        <path id="Path_662" data-name="Path 662" d="M130.849,260.7a9.849,9.849,0,1,1,9.849-9.849A9.86,9.86,0,0,1,130.849,260.7Z" transform="translate(-121 -241)" fill="#ffcb66"/>
      </g>
    </g>
    <path id="Path_663" data-name="Path 663" d="M260.245,323.174,256,327.418v29.548h39.4a3.776,3.776,0,0,0,2.364-.919l-32.873-32.873A3.284,3.284,0,0,0,260.245,323.174Z" transform="translate(-199.969 -227.475)" fill="#7acc52"/>
  </g>
</svg>
