<svg xmlns="http://www.w3.org/2000/svg" width="108.547" height="83" viewBox="0 0 108.547 83">
  <g id="briefcase" transform="translate(0 -60.25)">
    <g id="Group_227" data-name="Group 227" transform="translate(0 95.364)">
      <path id="Path_641" data-name="Path 641" d="M99.793,273.766H8.754A8.763,8.763,0,0,1,0,265.012V228.965l54.273,6.408,54.273-9.493v39.132a8.763,8.763,0,0,1-8.754,8.754Z" transform="translate(0 -225.88)" fill="#36406a"/>
    </g>
    <path id="Path_642" data-name="Path 642" d="M301.52,273.766a8.763,8.763,0,0,0,8.754-8.754V225.88L256,235.373v38.392Z" transform="translate(-201.727 -130.516)" fill="#22294a"/>
    <g id="Group_228" data-name="Group 228" transform="translate(38.32 60.25)">
      <path id="Path_643" data-name="Path 643" d="M209.477,79.383H183.93a3.18,3.18,0,0,1-3.18-3.18V67.1a6.858,6.858,0,0,1,6.85-6.851h18.206a6.858,6.858,0,0,1,6.85,6.851v9.1A3.18,3.18,0,0,1,209.477,79.383ZM187.11,75.108H206.3V67.1a.491.491,0,0,0-.49-.49H187.6a.491.491,0,0,0-.49.49v8.007Z" transform="translate(-180.75 -60.25)" fill="#2e3e59"/>
    </g>
    <path id="Path_644" data-name="Path 644" d="M265.1,60.25H256v6.36h9.1a.491.491,0,0,1,.49.49v8.008H256v4.275h12.773a3.18,3.18,0,0,0,3.18-3.18V67.1a6.858,6.858,0,0,0-6.85-6.851Z" transform="translate(-201.727)" fill="#1b2a36"/>
    <g id="Group_230" data-name="Group 230" transform="translate(0 73.023)">
      <g id="Group_229" data-name="Group 229" transform="translate(0 0)">
        <path id="Path_645" data-name="Path 645" d="M54.273,158.792a3.177,3.177,0,0,1-.771-.095L0,145.926V123.68a3.18,3.18,0,0,1,3.18-3.18H105.367a3.18,3.18,0,0,1,3.18,3.18v19.161a3.18,3.18,0,0,1-2.409,3.085L55.045,158.7A3.176,3.176,0,0,1,54.273,158.792Z" transform="translate(0 -120.5)" fill="#485696"/>
      </g>
    </g>
    <path id="Path_646" data-name="Path 646" d="M307.093,120.5H256v38.292a3.176,3.176,0,0,0,.771-.095l51.093-12.771a3.18,3.18,0,0,0,2.409-3.085V123.68A3.18,3.18,0,0,0,307.093,120.5Z" transform="translate(-201.727 -47.477)" fill="#364072"/>
    <path id="Path_647" data-name="Path 647" d="M209.477,241H183.93a3.18,3.18,0,0,0-3.18,3.18v12.773a3.18,3.18,0,0,0,3.18,3.18h25.547a3.18,3.18,0,0,0,3.18-3.18V244.18A3.18,3.18,0,0,0,209.477,241Z" transform="translate(-142.43 -142.43)" fill="#e9d637"/>
    <path id="Path_648" data-name="Path 648" d="M268.773,241H256v19.133h12.773a3.18,3.18,0,0,0,3.18-3.18V244.18A3.18,3.18,0,0,0,268.773,241Z" transform="translate(-201.727 -142.43)" fill="#edba45"/>
  </g>
</svg>
