<svg xmlns="http://www.w3.org/2000/svg" width="1920" height="872.179" viewBox="0 0 1920 872.179">
  <g id="Group_396" data-name="Group 396" transform="translate(0 -59.821)">
    <rect id="Rectangle_202" data-name="Rectangle 202" width="1920" height="872" transform="translate(0 60)" fill="#485696"/>
    <g id="Group_245" data-name="Group 245">
      <circle id="Ellipse_10" data-name="Ellipse 10" cx="46" cy="46" r="46" transform="translate(71 391.326) rotate(-30)" fill="#485696"/>
      <circle id="Ellipse_11" data-name="Ellipse 11" cx="56.11" cy="56.11" r="56.11" transform="translate(118.441 303.094) rotate(-30)" fill="#fcb839"/>
      <circle id="Ellipse_12" data-name="Ellipse 12" cx="64" cy="64" r="64" transform="matrix(0.799, -0.602, 0.602, 0.799, 699.833, 136.854)" fill="#fc7a27"/>
      <circle id="Ellipse_13" data-name="Ellipse 13" cx="29" cy="29" r="29" transform="translate(417.119 178.45) rotate(-30)" fill="#fc7a27"/>
      <circle id="Ellipse_14" data-name="Ellipse 14" cx="64" cy="64" r="64" transform="translate(1434 233)" fill="#fcb839"/>
      <circle id="Ellipse_15" data-name="Ellipse 15" cx="112.506" cy="112.506" r="112.506" transform="translate(170.603 303.001) rotate(-30)" fill="#fff"/>
      <path id="Path_604" data-name="Path 604" d="M40.5,0A40.5,40.5,0,1,1,0,40.5,40.5,40.5,0,0,1,40.5,0Z" transform="translate(1417 193)" fill="#f24c00"/>
      <circle id="Ellipse_17" data-name="Ellipse 17" cx="53.5" cy="53.5" r="53.5" transform="translate(1535 221)" fill="#fff"/>
      <circle id="Ellipse_18" data-name="Ellipse 18" cx="43.5" cy="43.5" r="43.5" transform="matrix(0.799, -0.602, 0.602, 0.799, 664.936, 181.933)" fill="#fcb839"/>
      <circle id="Ellipse_19" data-name="Ellipse 19" cx="23.5" cy="23.5" r="23.5" transform="translate(1134 111)" fill="#fcb839"/>
      <circle id="Ellipse_20" data-name="Ellipse 20" cx="40" cy="40" r="40" transform="translate(1651 484)" fill="#fff"/>
    </g>
  </g>
</svg>
