<?xml version="1.0" encoding="iso-8859-1"?>
<!-- Generator: Adobe Illustrator 19.0.0, SVG Export Plug-In . SVG Version: 6.00 Build 0)  -->
<svg version="1.1" id="Capa_1" xmlns="http://www.w3.org/2000/svg" xmlns:xlink="http://www.w3.org/1999/xlink" x="0px" y="0px"
	 viewBox="0 0 512.008 512.008" style="enable-background:new 0 0 512.008 512.008;" xml:space="preserve">
<g>
	<g>
		<path d="M502.624,457.38L375.808,330.564C400.96,296.164,416,253.892,416,208.004c0-114.88-93.12-208-208-208s-208,93.12-208,208
			s93.12,208,208,208c45.888,0,88.16-15.04,122.56-40.192l126.816,126.816c6.24,6.24,14.432,9.376,22.624,9.376
			c8.192,0,16.384-3.136,22.624-9.376C515.136,490.116,515.136,469.892,502.624,457.38z M219.904,346.692
			c-3.04,3.36-7.36,5.312-11.904,5.312s-8.864-1.952-11.904-5.312C185.856,335.268,96,233.476,96,176.004c0-61.76,50.24-112,112-112
			s112,50.24,112,112C320,233.476,230.144,335.268,219.904,346.692z"/>
	</g>
</g>
<g>
	<g>
		<circle cx="208" cy="176.004" r="48"/>
	</g>
</g>
<g>
</g>
<g>
</g>
<g>
</g>
<g>
</g>
<g>
</g>
<g>
</g>
<g>
</g>
<g>
</g>
<g>
</g>
<g>
</g>
<g>
</g>
<g>
</g>
<g>
</g>
<g>
</g>
<g>
</g>
</svg>
