<svg id="location" xmlns="http://www.w3.org/2000/svg" width="54.128" height="61.586" viewBox="0 0 54.128 61.586">
  <circle id="Ellipse_39" data-name="Ellipse 39" cx="11" cy="11" r="11" transform="translate(16.128 8.759)" fill="#fff"/>
  <path id="Path_608" data-name="Path 608" d="M65.5,335.227a1.843,1.843,0,0,0-1.7.83l-5.738,8.949-5.738-8.949a1.773,1.773,0,0,0-1.7-.83C38.686,336.49,31,340.568,31,345.656c0,7.037,13.929,10.826,27.064,10.826s27.064-3.789,27.064-10.826C85.128,340.568,77.442,336.49,65.5,335.227Z" transform="translate(-31 -294.896)" fill="#fcb839"/>
  <path id="Path_609" data-name="Path 609" d="M283.064,345.706c0,7.037-13.929,10.826-27.064,10.826V345.057l5.738-8.949a1.842,1.842,0,0,1,1.7-.83C275.378,336.541,283.064,340.619,283.064,345.706Z" transform="translate(-228.936 -294.947)" fill="#d59e23"/>
  <path id="Path_610" data-name="Path 610" d="M110.847,0a19.834,19.834,0,0,0-16.13,31.394l14.615,23.046a1.8,1.8,0,0,0,3.031,0l14.687-23.119A19.857,19.857,0,0,0,110.847,0Zm0,28.868a9.021,9.021,0,1,1,9.021-9.021A9.032,9.032,0,0,1,110.847,28.868Z" transform="translate(-83.783)" fill="#fc7a27"/>
  <path id="Path_611" data-name="Path 611" d="M256,0V10.826h0a9.021,9.021,0,1,1,0,18.043h0v26.4a1.743,1.743,0,0,0,1.515-.83L272.2,31.322A19.857,19.857,0,0,0,256,0Z" transform="translate(-228.936)" fill="#c36327"/>
</svg>
