<svg id="location" xmlns="http://www.w3.org/2000/svg" width="89.057" height="101.328" viewBox="0 0 89.057 101.328">
  <path id="Path_608" data-name="Path 608" d="M87.759,335.234a3.032,3.032,0,0,0-2.79,1.366l-9.44,14.724L66.088,336.6a2.916,2.916,0,0,0-2.79-1.366C43.646,337.312,31,344.021,31,352.392,31,363.97,53.917,370.2,75.529,370.2s44.529-6.234,44.529-17.812C120.057,344.021,107.411,337.312,87.759,335.234Z" transform="translate(-31 -268.876)" fill="#fcb839"/>
  <path id="Path_609" data-name="Path 609" d="M300.529,352.438c0,11.578-22.917,17.812-44.529,17.812V351.37l9.44-14.724a3.031,3.031,0,0,1,2.79-1.366C287.883,337.358,300.529,344.067,300.529,352.438Z" transform="translate(-211.471 -268.922)" fill="#d59e23"/>
  <circle id="Ellipse_40" data-name="Ellipse 40" cx="20.5" cy="20.5" r="20.5" transform="translate(24.033 13.691)" fill="#fff"/>
  <path id="Path_610" data-name="Path 610" d="M123.654,0A32.634,32.634,0,0,0,97.115,51.653l24.046,37.919a2.96,2.96,0,0,0,4.987,0l24.164-38.037A32.67,32.67,0,0,0,123.654,0Zm0,47.5A14.843,14.843,0,1,1,138.5,32.654,14.86,14.86,0,0,1,123.654,47.5Z" transform="translate(-79.126)" fill="#485696"/>
  <path id="Path_611" data-name="Path 611" d="M256,0V17.811h0A14.843,14.843,0,1,1,256,47.5h0v43.44a2.868,2.868,0,0,0,2.493-1.365l24.164-38.038A32.67,32.67,0,0,0,256,0Z" transform="translate(-211.471)" fill="#323b65"/>
</svg>
