<svg xmlns="http://www.w3.org/2000/svg" width="104.7" height="104.694" viewBox="0 0 104.7 104.694">
  <g id="package" transform="translate(0 -0.014)">
    <path id="Path_649" data-name="Path 649" d="M369.935,190.521V206.65a3.066,3.066,0,1,1-6.133,0V192.614l6-2.966a2.748,2.748,0,0,1,.115.568A3.042,3.042,0,0,1,369.935,190.521Z" transform="translate(-289.407 -150.855)" fill="#ffe89c"/>
    <path id="Path_650" data-name="Path 650" d="M104.7,30.652V74.077a7.165,7.165,0,0,1-3.984,6.445L54.464,103.959a7.217,7.217,0,0,1-3.209.752h-.045a7.218,7.218,0,0,1-3.289-.814l-.018-.01L3.866,80.516A7.189,7.189,0,0,1,0,74.13V30.6a7.176,7.176,0,0,1,3.866-6.384L47.92.833A7.218,7.218,0,0,1,54.464.772l.02.008,46.232,23.427a7.177,7.177,0,0,1,3.984,6.445Z" transform="translate(0 -0.003)" fill="#6673af"/>
    <path id="Path_651" data-name="Path 651" d="M303.913,136.455V179.88a7.165,7.165,0,0,1-3.984,6.445l-46.252,23.437a7.217,7.217,0,0,1-3.209.752h-.045V159.023l52.624-26A7.189,7.189,0,0,1,303.913,136.455Z" transform="translate(-199.214 -105.806)" fill="#485696"/>
    <path id="Path_652" data-name="Path 652" d="M107.205,27.213,83.771,38.793l-5.765,2.85L54.581,53.217,4.239,27.16a7.2,7.2,0,0,1,3-2.948L26.124,14.187l6.548-3.475L51.293.83A7.212,7.212,0,0,1,57.836.769l.02.008L104.088,24.2A7.169,7.169,0,0,1,107.205,27.213Z" transform="translate(-3.372 0)" fill="#7a8ad1"/>
    <path id="Path_653" data-name="Path 653" d="M169.036,81.281V97.41a3.066,3.066,0,0,1-6.133,0V83.131L139.718,70.862,111.261,55.8l6.548-3.475,21.91,11.595L167.4,78.573l.012.006c.059.033.117.07.174.1.031.018.063.037.094.057l0,0a3.027,3.027,0,0,1,.628.566l.022.027c.045.053.084.11.125.166.018.027.039.051.057.08s.051.084.078.127.055.09.08.137c.014.027.027.053.039.08.033.065.063.131.092.2,0,.01.006.018.01.027a2.422,2.422,0,0,1,.088.26,2.745,2.745,0,0,1,.115.568C169.03,81.079,169.036,81.179,169.036,81.281Z" transform="translate(-88.509 -41.615)" fill="#fffce5"/>
    <path id="Path_654" data-name="Path 654" d="M92.683,295.5a3.066,3.066,0,0,0-4.2-1.093l-9.5,5.571L77,296.367a3.066,3.066,0,1,0-5.369,2.964l3.515,6.368c.008.015.018.029.026.043s.009.018.014.027.025.039.037.058.037.059.056.088.039.058.06.086.041.057.062.085.043.054.065.081.044.054.067.079.046.051.07.076.046.049.07.073.051.048.076.072l.072.066c.027.024.055.046.083.069l.073.058c.029.022.06.043.09.064l.074.052c.031.02.063.04.095.059l.076.046c.033.019.066.036.1.053l.077.04c.034.017.069.031.1.047l.079.035c.034.014.07.026.1.039l.083.03c.035.012.07.021.1.032l.086.025c.034.009.069.016.1.024s.06.015.09.021.066.011.1.017.065.011.1.016l.094.009c.035,0,.07.008.1.01l.083,0c.038,0,.077,0,.115,0,.065,0,.13,0,.194-.006l.05,0c.048,0,.1-.008.143-.014l.073-.011c.04-.006.079-.012.119-.019l.085-.019c.035-.008.071-.016.106-.025l.091-.026.1-.03.093-.033.095-.036.092-.04.093-.043.089-.045.059-.03.024-.015.046-.025L91.591,299.7A3.067,3.067,0,0,0,92.683,295.5Z" transform="translate(-56.676 -233.857)" fill="#fcb839"/>
  </g>
</svg>
