<svg xmlns="http://www.w3.org/2000/svg" width="226.571" height="212.028" viewBox="0 0 226.571 212.028">
  <g id="Group_382" data-name="Group 382" transform="translate(-899 -335.212)">
    <g id="package" transform="translate(899 335.212)">
      <path id="Path_649" data-name="Path 649" d="M374.75,191.206V220a5.474,5.474,0,1,1-10.948,0V194.943l10.714-5.3a4.9,4.9,0,0,1,.2,1.014A5.43,5.43,0,0,1,374.75,191.206Z" transform="translate(-230.997 -120.423)" fill="#ffe89c"/>
      <path id="Path_650" data-name="Path 650" d="M186.9,54.7v77.52a12.79,12.79,0,0,1-7.112,11.506L97.226,185.568a12.883,12.883,0,0,1-5.729,1.343h-.08a12.885,12.885,0,0,1-5.871-1.453l-.033-.018L6.9,143.718a12.833,12.833,0,0,1-6.9-11.4V54.609a12.81,12.81,0,0,1,6.9-11.4L85.545,1.473a12.885,12.885,0,0,1,11.681-.11l.037.015,82.53,41.82A12.812,12.812,0,0,1,186.9,54.7Z" transform="translate(0 -0.017)" fill="#6673af"/>
      <path id="Path_651" data-name="Path 651" d="M345.911,139.153v77.52a12.79,12.79,0,0,1-7.112,11.506l-82.566,41.838a12.883,12.883,0,0,1-5.729,1.343h-.08V179.44l93.941-46.421A12.832,12.832,0,0,1,345.911,139.153Z" transform="translate(-159.007 -84.466)" fill="#485696"/>
      <path id="Path_652" data-name="Path 652" d="M188.049,48.567,146.214,69.24l-10.291,5.087L94.108,94.989,4.239,48.473A12.858,12.858,0,0,1,9.592,43.21l33.715-17.9L55,19.111,88.236,1.471a12.874,12.874,0,0,1,11.681-.11l.037.015,82.53,41.82A12.8,12.8,0,0,1,188.049,48.567Z" transform="translate(-2.692 -0.014)" fill="#7a8ad1"/>
      <path id="Path_653" data-name="Path 653" d="M214.4,104.014v28.792a5.474,5.474,0,1,1-10.948,0V107.317l-41.389-21.9-50.8-26.884,11.688-6.2,39.112,20.7,49.425,26.154.022.011c.106.058.208.124.31.186.055.033.113.066.168.1l0,0a5.4,5.4,0,0,1,1.12,1.011c.015.018.029.033.04.047.08.095.15.2.223.3.033.047.069.091.1.142.051.073.091.15.139.226s.1.161.142.245c.026.047.047.095.069.142.058.117.113.234.164.354.007.018.011.033.018.047a4.324,4.324,0,0,1,.157.464,4.9,4.9,0,0,1,.2,1.015C214.387,103.653,214.4,103.832,214.4,104.014Z" transform="translate(-70.645 -33.23)" fill="#fffce5"/>
    </g>
    <g id="checked" transform="translate(1014.526 436.194)">
      <circle id="Ellipse_36" data-name="Ellipse 36" cx="55.523" cy="55.523" r="55.523" transform="translate(0 0)" fill="#7bc778"/>
      <path id="Path_687" data-name="Path 687" d="M148.677,93.156a55.686,55.686,0,0,1-55.523,55.523,54.636,54.636,0,0,1-43.377-20.821A54.78,54.78,0,0,0,84.479,140,55.686,55.686,0,0,0,140,84.481a54.78,54.78,0,0,0-12.146-34.7A54.634,54.634,0,0,1,148.677,93.156Z" transform="translate(-37.632 -37.633)" fill="#69ad66"/>
      <path id="Path_688" data-name="Path 688" d="M159.491,131.192l-36.09,39.56a5.928,5.928,0,0,1-9.022,0l-15.269-17a6.139,6.139,0,0,1,9.022-8.329l10.758,12.146,31.578-34.355a6.085,6.085,0,0,1,8.676-.347A5.983,5.983,0,0,1,159.491,131.192Z" transform="translate(-73.778 -91.632)" fill="#fff"/>
    </g>
  </g>
</svg>
