<svg id="magnifying-glass" xmlns="http://www.w3.org/2000/svg" width="73.734" height="73.731" viewBox="0 0 73.734 73.731">
  <g id="Group_154" data-name="Group 154" transform="translate(0 14.504)">
    <path id="Path_612" data-name="Path 612" d="M1.9,158.051a6.5,6.5,0,0,1,0-9.19l47.5-47.5a2.16,2.16,0,0,1,3.055,0l6.135,6.135a2.16,2.16,0,0,1,0,3.055l-47.5,47.5a6.506,6.506,0,0,1-9.19,0Z" transform="translate(0 -100.724)" fill="#fc7a27"/>
  </g>
  <path id="Path_613" data-name="Path 613" d="M69.911,129.486a2.16,2.16,0,0,1,0,3.055l-47.5,47.5a6.506,6.506,0,0,1-9.19,0l53.627-53.627Z" transform="translate(-11.314 -108.214)" fill="#c66121"/>
  <circle id="Ellipse_28" data-name="Ellipse 28" cx="28.19" cy="28.19" r="28.19" transform="translate(17.353)" fill="#76cefb"/>
  <path id="Path_614" data-name="Path 614" d="M217.747,57.409A28.177,28.177,0,1,1,177.9,97.258Z" transform="translate(-152.279 -49.143)" fill="#6897f4"/>
  <circle id="Ellipse_29" data-name="Ellipse 29" cx="19.514" cy="19.514" r="19.514" transform="translate(26.03 8.677)" fill="#e1faff"/>
  <path id="Path_615" data-name="Path 615" d="M234.274,133.3a19.453,19.453,0,0,1-13.792-5.722l27.583-27.583A19.5,19.5,0,0,1,234.274,133.3Z" transform="translate(-188.73 -85.594)" fill="#c7f5ff"/>
</svg>
