<svg id="checked" xmlns="http://www.w3.org/2000/svg" width="205" height="205" viewBox="0 0 205 205">
  <circle id="Ellipse_36" data-name="Ellipse 36" cx="102.5" cy="102.5" r="102.5" transform="translate(0 0)" fill="#7bc778"/>
  <path id="Path_687" data-name="Path 687" d="M232.355,129.857c0,56.375-46.125,102.5-102.5,102.5-32.672,0-61.5-14.734-80.078-38.437a101.128,101.128,0,0,0,64.062,22.422c56.375,0,102.5-46.125,102.5-102.5a101.128,101.128,0,0,0-22.422-64.062C217.621,68.356,232.355,97.185,232.355,129.857Z" transform="translate(-27.356 -27.357)" fill="#69ad66"/>
  <path id="Path_688" data-name="Path 688" d="M211.866,139.641l-66.625,73.031a10.944,10.944,0,0,1-16.656,0L100.4,181.282a11.334,11.334,0,1,1,16.656-15.375l19.859,22.422,58.3-63.422c4.485-4.485,11.531-5.125,16.016-.641C215.709,128.11,215.709,135.8,211.866,139.641Z" transform="translate(-53.632 -66.61)" fill="#fff"/>
</svg>
